  0
SECTION
  2
HEADER
  9
$ACADVER
  1
AC1009
  9
$EXTMAX
 10
18.7563037872314
 20
17.3704471588135
 30
0.0
  9
$EXTMIN
 10
-18.5722980499268
 20
-18.3061656951904
 30
0.0
  9
$INSUNITS
 70
     4
  9
$LUNITS
 70
     2
  9
$LUPREC
 70
     4
  9
$MEASUREMENT
 70
     1
  0
ENDSEC
  0
SECTION
  2
TABLES
  0
TABLE
  2
LAYER
 70
     1
  0
LAYER
  2
0
 70
     0
 62
     7
  6
Continuous
  0
LAYER
  2
Default
 70
     0
 62
    12
  6
Continuous
  0
ENDTAB
  0
TABLE
  2
APPID
 70
     1
  0
APPID
  2
ACAD
 70
     0
  0
ENDTAB
  0
ENDSEC
  0
SECTION
  2
ENTITIES
  0
POLYLINE
  8
Default
 66
     1
 10
0.0
 20
0.0
 30
0.0
 70
     1
  0
VERTEX
  8
Default
 10
-11.044165
 20
16.958071
 42
-0.0945441500549
  0
VERTEX
  8
Default
 10
-7.9193811120231
 20
17.3544858935407
 42
-0.0627916675696
  0
VERTEX
  8
Default
 10
-5.6021447082953
 20
16.9177939893609
 42
-0.0411910462455
  0
VERTEX
  8
Default
 10
-3.9683515695595
 20
16.2414420285186
 42
-0.1148382442263
  0
VERTEX
  8
Default
 10
0.036858
 20
12.827899
 42
-0.0409910683384
  0
VERTEX
  8
Default
 10
1.8286407920475
 20
14.6406489084183
 42
-0.0370010462439
  0
VERTEX
  8
Default
 10
3.3707266689815
 20
15.7826422391631
 42
-0.0329999312585
  0
VERTEX
  8
Default
 10
4.6362188151923
 20
16.4747281889535
 42
-0.0179250164729
  0
VERTEX
  8
Default
 10
4.7594679139034
 20
16.5310136352468
 42
-0.0563552071545
  0
VERTEX
  8
Default
 10
6.7525513958131
 20
17.1769773163201
 42
-0.0641682515208
  0
VERTEX
  8
Default
 10
8.842302
 20
17.327633
 42
-0.0348017462066
  0
VERTEX
  8
Default
 10
9.7855569599075
 20
17.28408303492
 42
0.0
  0
VERTEX
  8
Default
 10
9.9900810518121
 20
17.2569979931993
 42
-0.0528378712107
  0
VERTEX
  8
Default
 10
11.5334978231503
 20
16.8549982580135
 42
-0.0313060823941
  0
VERTEX
  8
Default
 10
12.6236016993884
 20
16.3657465215598
 42
0.0
  0
VERTEX
  8
Default
 10
12.8207477231717
 20
16.2594948408358
 42
-0.0079920788604
  0
VERTEX
  8
Default
 10
13.184375418984
 20
16.0493897873807
 42
-0.0275821225592
  0
VERTEX
  8
Default
 10
14.395907837624
 20
15.2184098932769
 42
-0.0232533662654
  0
VERTEX
  8
Default
 10
15.518494
 20
14.270822
 42
-0.0379212514505
  0
VERTEX
  8
Default
 10
16.6025229292483
 20
12.9461236945203
 42
-0.0631459083101
  0
VERTEX
  8
Default
 10
17.989965025106
 20
10.2975053256995
 42
-0.0934884939389
  0
VERTEX
  8
Default
 10
18.7555714659279
 20
5.889866441974
 42
-0.0508017617255
  0
VERTEX
  8
Default
 10
18.4927418462803
 20
3.6560763943616
 42
-0.0551746433587
  0
VERTEX
  8
Default
 10
17.770015
 20
1.526095
 42
-0.0501982483982
  0
VERTEX
  8
Default
 10
16.8908395993521
 20
-0.1659109036573
 42
-0.0255441930063
  0
VERTEX
  8
Default
 10
16.0487888302989
 20
-1.3189400843113
 42
0.0
  0
VERTEX
  8
Default
 10
15.8786380838055
 20
-1.5254589540708
 42
-0.0067785462604
  0
VERTEX
  8
Default
 10
15.5514386547129
 20
-1.9058936431457
 42
0.0
  0
VERTEX
  8
Default
 10
15.4053888953443
 20
-2.0697681591516
 42
0.0
  0
VERTEX
  8
Default
 10
15.2670374071794
 20
-2.2221595387619
 42
0.0
  0
VERTEX
  8
Default
 10
15.0044949888455
 20
-2.5048307893503
 42
0.0
  0
VERTEX
  8
Default
 10
14.7718392678301
 20
-2.7494317131248
 42
-0.0070293131487
  0
VERTEX
  8
Default
 10
14.5664388903768
 20
-2.9617358561001
 42
-0.0088293360701
  0
VERTEX
  8
Default
 10
14.4761337728618
 20
-3.0541922648135
 42
0.0
  0
VERTEX
  8
Default
 10
14.1357284629266
 20
-3.3990630105133
 42
0.0
  0
VERTEX
  8
Default
 10
13.109389
 20
-4.428692
 42
0.0037787173171
  0
VERTEX
  8
Default
 10
12.8383119691952
 20
-4.6869726882304
 42
0.0030948482746
  0
VERTEX
  8
Default
 10
12.5847454695973
 20
-4.9296952223258
 42
0.0033872007626
  0
VERTEX
  8
Default
 10
12.1105370694451
 20
-5.3860620565939
 42
0.0024354408726
  0
VERTEX
  8
Default
 10
11.696595095635
 20
-5.7864254286417
 42
0.0020110753481
  0
VERTEX
  8
Default
 10
11.3349041175125
 20
-6.1372613261016
 42
0.0018702371525
  0
VERTEX
  8
Default
 10
11.018638719214
 20
-6.4444587526666
 42
-0.0026130412217
  0
VERTEX
  8
Default
 10
10.465211946139
 20
-6.9820817487058
 42
-0.0022939754291
  0
VERTEX
  8
Default
 10
10.0497868537485
 20
-7.3849230763298
 42
-0.0015520349305
  0
VERTEX
  8
Default
 10
8.798261
 20
-8.587979
 42
0.0
  0
VERTEX
  8
Default
 10
8.0981349166607
 20
-9.2080968647015
 42
0.0
  0
VERTEX
  8
Default
 10
7.4849195257678
 20
-9.7503938352285
 42
0.0
  0
VERTEX
  8
Default
 10
6.9513408307607
 20
-10.2284670210912
 42
0.0053554437195
  0
VERTEX
  8
Default
 10
6.83524860852
 20
-10.3338453255416
 42
0.0065605348073
  0
VERTEX
  8
Default
 10
6.7230817609763
 20
-10.436252427881
 42
0.0063490971596
  0
VERTEX
  8
Default
 10
5.8668741679578
 20
-11.2437390991392
 42
0.0090752056922
  0
VERTEX
  8
Default
 10
5.7880239858207
 20
-11.3210184829878
 42
0.0202705631592
  0
VERTEX
  8
Default
 10
4.6124953719187
 20
-12.5634734451353
 42
0.0
  0
VERTEX
  8
Default
 10
4.4730386010196
 20
-12.7256328577725
 42
0.0239516025174
  0
VERTEX
  8
Default
 10
3.55882
 20
-13.910828
 42
-0.0059282369657
  0
VERTEX
  8
Default
 10
3.1520775471144
 20
-14.4767277063361
 42
-0.0089653766081
  0
VERTEX
  8
Default
 10
2.4052532942782
 20
-15.4407271244062
 42
0.0
  0
VERTEX
  8
Default
 10
2.1181236637256
 20
-15.7966657256436
 42
0.0
  0
VERTEX
  8
Default
 10
1.6121538952935
 20
-16.4166918922048
 42
0.0048639241932
  0
VERTEX
  8
Default
 10
0.8581395006064
 20
-17.350749305674
 42
0.0122252863178
  0
VERTEX
  8
Default
 10
0.7652709259218
 20
-17.4686708506231
 42
0.0116833111986
  0
VERTEX
  8
Default
 10
0.6843999169524
 20
-17.5721506223202
 42
0.0074944991867
  0
VERTEX
  8
Default
 10
0.131361
 20
-18.306165
 42
0.019492680105
  0
VERTEX
  8
Default
 10
-0.120684591669
 20
-17.8728338774093
 42
0.0
  0
VERTEX
  8
Default
 10
-0.2404775101826
 20
-17.6892417646061
 42
0.01163568293
  0
VERTEX
  8
Default
 10
-0.4763497347843
 20
-17.3527603941565
 42
0.0104538828974
  0
VERTEX
  8
Default
 10
-0.692185863281
 20
-17.0652148446201
 42
0.0
  0
VERTEX
  8
Default
 10
-0.8866229698599
 20
-16.8180456165713
 42
0.0101289183237
  0
VERTEX
  8
Default
 10
-1.2368403415847
 20
-16.3933411775223
 42
0.0
  0
VERTEX
  8
Default
 10
-1.5058737121028
 20
-16.0801878297154
 42
0.0
  0
VERTEX
  8
Default
 10
-1.7103638172088
 20
-15.8477352729268
 42
0.0
  0
VERTEX
  8
Default
 10
-2.0203585782993
 20
-15.5019782416007
 42
0.0
  0
VERTEX
  8
Default
 10
-2.1763800526256
 20
-15.3300271624743
 42
0.0
  0
VERTEX
  8
Default
 10
-2.332761
 20
-15.158414
 42
0.0
  0
VERTEX
  8
Default
 10
-2.7876113589059
 20
-14.6272431232177
 42
0.0104982687933
  0
VERTEX
  8
Default
 10
-4.5430516864165
 20
-12.6792638800449
 42
0.0263239000897
  0
VERTEX
  8
Default
 10
-4.5851242445239
 20
-12.6343642640982
 42
0.004778930722
  0
VERTEX
  8
Default
 10
-5.2570126687953
 20
-11.9269944196232
 42
0.0
  0
VERTEX
  8
Default
 10
-5.5536339829392
 20
-11.6200306362472
 42
0.0
  0
VERTEX
  8
Default
 10
-6.1135606290188
 20
-11.0482186548965
 42
0.002983439992
  0
VERTEX
  8
Default
 10
-7.1029646724086
 20
-10.0570924536981
 42
0.0113917898593
  0
VERTEX
  8
Default
 10
-7.1962149032938
 20
-9.9646390721586
 42
0.0020225491199
  0
VERTEX
  8
Default
 10
-7.5580693929339
 20
-9.6069879203332
 42
0.0
  0
VERTEX
  8
Default
 10
-8.8280954553895
 20
-8.3589200930842
 42
0.0
  0
VERTEX
  8
Default
 10
-9.4626550513151
 20
-7.7344897079308
 42
0.0
  0
VERTEX
  8
Default
 10
-10.095199
 20
-7.107966
 42
0.0
  0
VERTEX
  8
Default
 10
-10.6995617110704
 20
-6.540362351094
 42
0.0
  0
VERTEX
  8
Default
 10
-11.841006862959
 20
-5.4833789408426
 42
-0.0018875838249
  0
VERTEX
  8
Default
 10
-12.3398058893695
 20
-5.0187989352652
 42
0.0
  0
VERTEX
  8
Default
 10
-12.5727709248447
 20
-4.7997505800703
 42
0.0
  0
VERTEX
  8
Default
 10
-12.7976203460844
 20
-4.5866043152697
 42
0.0
  0
VERTEX
  8
Default
 10
-13.230370973939
 20
-4.1702843758528
 42
-0.0056205807101
  0
VERTEX
  8
Default
 10
-13.3311566632366
 20
-4.0719502518201
 42
-0.0074451310415
  0
VERTEX
  8
Default
 10
-13.4301109603814
 20
-3.9748249710086
 42
-0.0056705599971
  0
VERTEX
  8
Default
 10
-14.1973059987263
 20
-3.1981910158261
 42
0.0
  0
VERTEX
  8
Default
 10
-14.5251615871659
 20
-2.850363677109
 42
-0.0011858300601
  0
VERTEX
  8
Default
 10
-14.827230790545
 20
-2.519110430857
 42
-0.0053925910781
  0
VERTEX
  8
Default
 10
-15.1051179774206
 20
-2.2036476020965
 42
-0.0084988278592
  0
VERTEX
  8
Default
 10
-15.610089023289
 20
-1.5982529515681
 42
0.0
  0
VERTEX
  8
Default
 10
-15.8236334694664
 20
-1.3271610464296
 42
0.0
  0
VERTEX
  8
Default
 10
-16.0192108487171
 20
-1.0694456362194
 42
-0.012573360078
  0
VERTEX
  8
Default
 10
-16.0643980042694
 20
-1.0084899217171
 42
-0.0177130046158
  0
VERTEX
  8
Default
 10
-16.73768242496
 20
-0.0220703016725
 42
-0.0343631934119
  0
VERTEX
  8
Default
 10
-17.5856850463752
 20
1.5556427851848
 42
-0.0399614625167
  0
VERTEX
  8
Default
 10
-18.189707
 20
3.241899
 42
-0.0510991697604
  0
VERTEX
  8
Default
 10
-18.5467543221655
 20
5.3285238031526
 42
-0.0426618829683
  0
VERTEX
  8
Default
 10
-18.5195412736521
 20
7.1798619203568
 42
-0.0679836321212
  0
VERTEX
  8
Default
 10
-17.7658364159846
 20
10.3243419842417
 42
-0.0505084989945
  0
VERTEX
  8
Default
 10
-16.6622992594187
 20
12.490663132693
 42
-0.0801050391296
  0
VERTEX
  8
Default
 10
-14.2354169595426
 20
15.2050324068345
 42
-0.0442587890547
  0
VERTEX
  8
Default
 10
-12.718520381561
 20
16.2247779602152
 42
-0.0462790807821
  0
SEQEND
  0
ENDSEC
  0
EOF
